Coordinates
version=1
nRows=16
nColumns=36
inDegrees=yes

Units are S.I. units (second, meters, Newtons, ...)
If the header above contains a line with 'inDegrees', this indicates whether rotational values are in degrees (yes) or radians (no).

endheader
time	pelvis_tilt	pelvis_list	pelvis_rotation	pelvis_tx	pelvis_ty	pelvis_tz	hip_flexion_r	hip_adduction_r	hip_rotation_r	knee_angle_r	knee_angle_r_beta	ankle_angle_r	subtalar_angle_r	mtp_angle_r	hip_flexion_l	hip_adduction_l	hip_rotation_l	knee_angle_l	knee_angle_l_beta	ankle_angle_l	subtalar_angle_l	mtp_angle_l	lumbar_extension	lumbar_bending	lumbar_rotation	arm_flex_r	arm_add_r	arm_rot_r	elbow_flex_r	pro_sup_r	arm_flex_l	arm_add_l	arm_rot_l	elbow_flex_l	pro_sup_l
      0.00000000	     -3.14761689	     -2.23588170	      6.35657707	     -0.17218584	      1.17127742	      0.10551253	      2.68451469	      0.92660398	    -13.12170944	      0.78485503	      0.01369830	     12.08277162	      0.23981550	     -5.30411075	      0.68181124	     -3.97993366	    -21.76373486	      0.12013019	      0.00209667	      2.10551714	     -7.52603481	     -5.30411075	     -1.08877042	      2.77156547	     -7.53970646	      4.60356716	     -7.98774799	     35.54498211	     17.53609119	     66.08194330	      0.92092831	    -10.44781035	     32.12265081	     22.67221061	     59.58536916
      0.01666670	     -5.00943893	     -1.97023601	      5.53712331	     -0.16979379	      1.17263488	      0.10433252	      4.68704584	      0.78712289	    -14.81717710	      0.60786366	      0.01060922	     12.77742706	      2.65583966	     -5.73624732	      2.91560838	     -2.70284799	    -25.56402157	      0.14779457	      0.00257950	      6.72656214	     -0.39924724	     -5.73624732	      1.12929601	      2.02294577	     -5.66310534	      3.79261419	     -8.59823619	     38.59612190	     17.22187564	     66.77073940	      1.75303226	    -10.42794442	     35.42993917	     22.34179605	     60.80953039
      0.03333330	     -6.16861464	     -0.63354224	      4.87091149	     -0.16835397	      1.17589090	      0.10640071	      5.65876438	     -0.33261756	    -16.08918363	      0.37056948	      0.00646766	     11.28173134	      3.61933778	     -6.18557214	      3.95987020	     -1.29165845	    -29.35084040	      0.15435910	      0.00269407	      6.02407443	     -0.33675675	     -6.18557214	      2.51523618	     -0.10121356	     -4.31594070	      3.38176450	     -8.78303214	     43.45303770	     17.26576998	     66.74632743	      2.58979771	    -11.70497266	     41.35820674	     21.99486407	     61.98384341
      0.05000000	     -6.96775215	      0.29279660	      4.58901817	     -0.17204521	      1.17546469	      0.10735281	      6.75455657	     -1.30998287	    -16.86317565	      0.26166923	      0.00456699	     11.55148795	      5.47609728	     -6.59646476	      5.06828289	     -0.29746662	    -30.19569698	      0.13912492	      0.00242819	      6.15454314	      0.13904491	     -6.59646476	      3.11590323	     -1.51377498	     -3.52278602	      3.45053765	     -8.89894033	     48.10775063	     17.16771931	     63.01356414	      3.65538177	    -12.62604725	     47.26624586	     21.44127821	     60.18644711
      0.06666670	     -7.29975735	      0.69616395	      4.40266425	     -0.17185979	      1.17173379	      0.10724233	      7.17587782	     -1.69032387	    -17.11440896	      0.21608922	      0.00377147	     11.69638144	      6.91172770	     -6.77960233	      5.73937313	      0.22234123	    -30.03549276	      0.12935074	      0.00225760	      7.29921694	      2.40870131	     -6.77960233	      3.24443196	     -2.06143200	     -3.36561260	      3.64442852	     -9.05030527	     49.10325220	     17.31085474	     62.30470380	      3.82044523	    -12.99546042	     48.56456050	     21.22710376	     59.86420388
      0.08333330	     -7.34726460	      0.87075475	      4.10542291	     -0.17329583	      1.17336553	      0.10793428	      7.28465956	     -1.82555506	    -16.38061669	      0.19303983	      0.00336918	     11.61667841	      7.11221193	     -6.88262159	      5.95725343	      0.43502067	    -29.49760840	      0.12320372	      0.00215031	      7.43291607	      3.45621782	     -6.88262159	      3.03109777	     -2.26090760	     -3.16567722	      3.96811458	     -9.15883702	     49.05033039	     17.13061730	     61.85588477	      4.14839462	    -13.21865444	     48.85951119	     20.88896479	     59.65525083
      0.10000000	     -7.24610977	      0.85290818	      3.95739929	     -0.17847503	      1.16920049	      0.10788707	      7.32927698	     -1.84648377	    -16.50996221	      0.18381500	      0.00320818	     12.14462469	      8.01554898	     -6.99951078	      6.13467374	      0.41657997	    -28.95152755	      0.12183915	      0.00212649	      8.80578861	      6.07127432	     -6.99951078	      2.54854031	     -2.22733191	     -2.92536493	      4.40403101	     -9.74117088	     49.32286468	     17.84025861	     61.01513764	      4.77908102	    -13.66054482	     50.54139453	     20.94980069	     59.24346506
      0.11666670	     -7.10269164	      0.72863220	      3.79324897	     -0.17955478	      1.16724046	      0.10822562	      7.29074217	     -1.68232121	    -15.97895781	      0.18080948	      0.00315572	     12.15937295	      7.79564488	     -7.15280036	      6.23331366	      0.27291066	    -27.86555838	      0.12040906	      0.00210153	      9.02719991	      6.91524757	     -7.15280036	      2.03488971	     -2.05963460	     -2.85270946	      4.89678737	    -10.11914311	     48.15029142	     18.18709909	     60.20133051	      5.11426408	    -13.95161568	     49.88021166	     21.05298238	     58.77482727
      0.13333330	     -6.85371593	      0.60473463	      3.51399527	     -0.18319564	      1.16756515	      0.10827230	      7.18488849	     -1.48128426	    -15.64053007	      0.18055453	      0.00315127	     12.09204303	      7.75091890	     -7.22281840	      6.21686515	      0.08042519	    -27.42097656	      0.12034991	      0.00210050	      9.40811209	      8.19539063	     -7.22281840	      1.26642743	     -1.88018012	     -2.61608659	      5.40193624	    -10.76583418	     47.44989539	     19.07071421	     59.61138220	      5.63034734	    -14.39746597	     50.29740443	     21.42162074	     58.12468180
      0.15000000	     -6.75202382	      0.52972840	      3.30298619	     -0.18592589	      1.16702166	      0.10820235	      7.29200846	     -1.37552263	    -15.35678194	      0.18085165	      0.00315646	     11.93057125	      7.39668930	     -7.25047784	      6.36187111	     -0.05048500	    -26.56332624	      0.12021073	      0.00209807	      9.47408431	      8.46782979	     -7.25047784	      0.71554583	     -1.77170206	     -2.57948683	      5.99251297	    -11.29185989	     46.55045553	     19.41683178	     59.31973605	      5.98331239	    -14.71545359	     49.84525911	     21.52514458	     57.83329871
      0.16666670	     -6.64974534	      0.44185135	      3.22258280	     -0.18753420	      1.16846680	      0.10881744	      7.33548574	     -1.22516354	    -15.19188575	      0.18288278	      0.00319191	     11.58870609	      7.00330788	     -7.27261406	      6.43045149	     -0.21456330	    -26.07478296	      0.12178323	      0.00212552	      9.03211876	      8.52579930	     -7.27261406	      0.22113497	     -1.75135346	     -2.56798617	      6.38987966	    -11.70767477	     45.53284492	     19.87662017	     59.08191715	      6.21613938	    -15.15204523	     49.20392835	     21.74221726	     57.59346018
      0.18333330	     -6.50891109	      0.43268963	      3.13807111	     -0.18580955	      1.17087760	      0.10806997	      7.32615983	     -1.18889851	    -15.27859925	      0.18535290	      0.00323502	     11.44040489	      6.98447793	     -7.34231116	      6.22062339	     -0.30653531	    -25.73583947	      0.12279419	      0.00214316	      8.84786073	      9.01166369	     -7.34231116	     -0.20891580	     -1.76258434	     -2.49859499	      6.43108504	    -12.12506252	     42.76570390	     20.55781082	     58.97617085	      6.09500851	    -15.41328622	     47.40674920	     21.99650944	     57.14949087
      0.20000000	     -6.43138301	      0.44923528	      3.09498093	     -0.18558033	      1.16944284	      0.10792666	      7.28280235	     -1.24863567	    -15.54120310	      0.18794485	      0.00328026	     11.19854930	      6.85918648	     -7.37241841	      6.00116873	     -0.32992195	    -24.96893301	      0.12190891	      0.00212771	      8.53841083	      8.66698364	     -7.37241841	     -0.37753269	     -1.81363865	     -2.61856175	      6.67591758	    -12.41855893	     41.01231019	     20.51610945	     58.98131362	      5.98065001	    -15.65591406	     46.10709105	     21.93538411	     57.15415989
      0.21666670	     -6.33039670	      0.49967484	      2.95347648	     -0.18512229	      1.16855784	      0.10784126	      7.20309557	     -1.36016244	    -15.18016450	      0.19157062	      0.00334354	     10.95037595	      6.64251207	     -7.39157434	      5.69904679	     -0.32661056	    -24.64516354	      0.12240948	      0.00213645	      8.54870803	      9.01682755	     -7.39157434	     -0.56278391	     -1.89059306	     -2.64866317	      6.76405439	    -12.79369432	     39.66136608	     20.65639152	     58.97809722	      5.83571643	    -15.92119932	     45.21586985	     22.04040971	     57.09288493
      0.23333330	     -6.24401556	      0.52989861	      2.96524413	     -0.18263314	      1.17125500	      0.10751748	      7.03859094	     -1.47149406	    -15.42523069	      0.19282960	      0.00336551	     11.13961167	      7.25379946	     -7.43445397	      5.44027668	     -0.32404220	    -24.54325235	      0.12144804	      0.00211967	      8.85342096	     10.19869722	     -7.43445397	     -0.64052229	     -1.95663115	     -2.55337026	      6.17387023	    -13.05414330	     34.88581116	     21.24566232	     61.92280593	      5.54380291	    -16.02798726	     44.12017901	     21.96115508	     56.20240093
      0.25000000	     -6.13224019	      0.60135928	      2.99580954	     -0.18300406	      1.17182507	      0.10773365	      6.81118110	     -1.61532155	    -15.36400275	      0.19141338	      0.00334079	     10.98608727	      6.92692805	     -7.44463868	      5.16945858	     -0.24154078	    -24.20491538	      0.11933722	      0.00208283	      8.68413759	     10.13961744	     -7.44463868	     -0.71079753	     -2.06973975	     -2.71745082	      6.28378565	    -13.34077461	     33.97594510	     20.89984491	     61.71072970	      5.34892523	    -16.13107279	     43.50689652	     21.52528303	     56.19473814
